<svg width="20" height="20" fill="none" xmlns="http://www.w3.org/2000/svg"><path d="M19.519 9.699c0-5.206-4.223-9.43-9.429-9.43C4.885.27.662 4.494.662 9.7a9.43 9.43 0 005.647 8.642c-.025-.663-.012-1.46.16-2.173 0 0 .184-.76 1.215-5.131-.307-.602-.307-1.498-.307-1.498 0-1.4.81-2.443 1.817-2.443.86 0 1.277.65 1.277 1.424 0 .86-.553 2.148-.835 3.34-.233 1.006.503 1.816 1.485 1.816 1.793 0 2.996-2.296 2.996-5.009 0-2.075-1.4-3.621-3.929-3.621-2.86 0-4.64 2.136-4.64 4.517 0 .823.245 1.4.626 1.854.172.209.196.283.135.528-.05.172-.147.59-.196.75-.062.245-.258.33-.467.245-1.314-.54-1.927-1.99-1.927-3.61 0-2.676 2.258-5.893 6.727-5.893 3.61 0 5.979 2.615 5.979 5.402 0 3.708-2.063 6.47-5.095 6.47-1.019 0-1.976-.552-2.296-1.179-.552 2.173-.663 2.59-.663 2.59-.196.725-.601 1.45-.957 2.014a9.22 9.22 0 002.676.393c5.206 0 9.429-4.223 9.429-9.428z" fill="#fff"/></svg>