<svg width="28" height="32" fill="none" xmlns="http://www.w3.org/2000/svg"><path fill-rule="evenodd" clip-rule="evenodd" d="M27.981 15.79c0 7.617-6.264 13.791-13.99 13.791C6.264 29.581 0 23.407 0 15.791 0 8.174 6.264 2 13.99 2c7.727 0 13.991 6.174 13.991 13.79zm-1.12 0c0 7.008-5.762 12.688-12.87 12.688-7.11 0-12.872-5.68-12.872-12.687S6.882 3.103 13.991 3.103c7.108 0 12.87 5.68 12.87 12.688zm-15.109-2.757v.551h1.12v8.826h-1.12v.552h4.477v-.552h-1.12v-9.377h-3.357zm3.917-2.759c0 .914-.751 1.655-1.678 1.655-.928 0-1.68-.74-1.68-1.655 0-.914.752-1.654 1.68-1.654.927 0 1.678.74 1.678 1.654z" fill="#fff"/></svg>